<mxfile host="www.draw.io" modified="2019-11-08T16:38:13.626Z" agent="Mozilla/5.0 (Windows NT 10.0; Win64; x64) AppleWebKit/537.36 (KHTML, like Gecko) Chrome/78.0.3904.97 Safari/537.36" etag="jnaWEPDKgK2Xs8foUjnf" version="12.2.3" type="github" pages="1">
  <diagram id="D2mkv0FKJSPZ_j_Xn19u" name="Page-1">
    <mxGraphModel dx="2336" dy="1351" grid="1" gridSize="10" guides="1" tooltips="1" connect="1" arrows="1" fold="1" page="1" pageScale="1" pageWidth="850" pageHeight="1100" math="0" shadow="0">
      <root>
        <mxCell id="0"/>
        <mxCell id="1" parent="0"/>
        <mxCell id="JzV0yU32i0BG53_tPpuR-122" value="" style="rounded=0;whiteSpace=wrap;html=1;strokeColor=#000000;" vertex="1" parent="1">
          <mxGeometry x="30" y="290" width="690" height="430" as="geometry"/>
        </mxCell>
        <mxCell id="SxaFy4cXrCoaptu_wzJ7-21" value="" style="group" parent="1" vertex="1" connectable="0">
          <mxGeometry x="130" y="510" width="145" height="30" as="geometry"/>
        </mxCell>
        <mxCell id="SxaFy4cXrCoaptu_wzJ7-20" value="" style="rounded=0;whiteSpace=wrap;html=1;strokeColor=#000000;" parent="SxaFy4cXrCoaptu_wzJ7-21" vertex="1">
          <mxGeometry width="145" height="30" as="geometry"/>
        </mxCell>
        <mxCell id="SxaFy4cXrCoaptu_wzJ7-14" value="" style="pointerEvents=1;shadow=0;dashed=0;html=1;strokeColor=none;fillColor=#505050;labelPosition=center;verticalLabelPosition=bottom;verticalAlign=top;outlineConnect=0;align=center;shape=mxgraph.office.devices.switch;" parent="SxaFy4cXrCoaptu_wzJ7-21" vertex="1">
          <mxGeometry x="5" y="7" width="55" height="18" as="geometry"/>
        </mxCell>
        <mxCell id="SxaFy4cXrCoaptu_wzJ7-15" value="" style="pointerEvents=1;shadow=0;dashed=0;html=1;strokeColor=none;fillColor=#505050;labelPosition=center;verticalLabelPosition=bottom;verticalAlign=top;outlineConnect=0;align=center;shape=mxgraph.office.devices.switch;" parent="SxaFy4cXrCoaptu_wzJ7-21" vertex="1">
          <mxGeometry x="85" y="7" width="55" height="18" as="geometry"/>
        </mxCell>
        <mxCell id="SxaFy4cXrCoaptu_wzJ7-19" value="" style="endArrow=none;html=1;strokeWidth=2;" parent="SxaFy4cXrCoaptu_wzJ7-21" source="SxaFy4cXrCoaptu_wzJ7-14" target="SxaFy4cXrCoaptu_wzJ7-15" edge="1">
          <mxGeometry width="50" height="50" relative="1" as="geometry">
            <mxPoint x="55" y="477" as="sourcePoint"/>
            <mxPoint x="105" y="427" as="targetPoint"/>
          </mxGeometry>
        </mxCell>
        <mxCell id="JzV0yU32i0BG53_tPpuR-12" value="&lt;b&gt;TOR STACK&lt;/b&gt;" style="text;html=1;strokeColor=none;fillColor=none;align=center;verticalAlign=middle;whiteSpace=wrap;rounded=0;" vertex="1" parent="1">
          <mxGeometry x="130" y="490" width="80" height="20" as="geometry"/>
        </mxCell>
        <mxCell id="JzV0yU32i0BG53_tPpuR-38" value="" style="group" vertex="1" connectable="0" parent="1">
          <mxGeometry x="50" y="580" width="130" height="100" as="geometry"/>
        </mxCell>
        <mxCell id="JzV0yU32i0BG53_tPpuR-36" value="" style="rounded=1;whiteSpace=wrap;html=1;strokeColor=#000000;" vertex="1" parent="JzV0yU32i0BG53_tPpuR-38">
          <mxGeometry width="127" height="100" as="geometry"/>
        </mxCell>
        <mxCell id="JzV0yU32i0BG53_tPpuR-37" value="" style="group" vertex="1" connectable="0" parent="JzV0yU32i0BG53_tPpuR-38">
          <mxGeometry x="14" y="10" width="116" height="90" as="geometry"/>
        </mxCell>
        <mxCell id="JzV0yU32i0BG53_tPpuR-22" value="" style="group" vertex="1" connectable="0" parent="JzV0yU32i0BG53_tPpuR-37">
          <mxGeometry width="20" height="80" as="geometry"/>
        </mxCell>
        <mxCell id="JzV0yU32i0BG53_tPpuR-18" value="" style="whiteSpace=wrap;html=1;aspect=fixed;strokeColor=#6c8ebf;fillColor=#dae8fc;" vertex="1" parent="JzV0yU32i0BG53_tPpuR-22">
          <mxGeometry width="20" height="20" as="geometry"/>
        </mxCell>
        <mxCell id="JzV0yU32i0BG53_tPpuR-19" value="" style="whiteSpace=wrap;html=1;aspect=fixed;strokeColor=#6c8ebf;fillColor=#dae8fc;" vertex="1" parent="JzV0yU32i0BG53_tPpuR-22">
          <mxGeometry y="20" width="20" height="20" as="geometry"/>
        </mxCell>
        <mxCell id="JzV0yU32i0BG53_tPpuR-20" value="" style="whiteSpace=wrap;html=1;aspect=fixed;strokeColor=#6c8ebf;fillColor=#dae8fc;" vertex="1" parent="JzV0yU32i0BG53_tPpuR-22">
          <mxGeometry y="40" width="20" height="20" as="geometry"/>
        </mxCell>
        <mxCell id="JzV0yU32i0BG53_tPpuR-21" value="" style="whiteSpace=wrap;html=1;aspect=fixed;strokeColor=#6c8ebf;fillColor=#dae8fc;" vertex="1" parent="JzV0yU32i0BG53_tPpuR-22">
          <mxGeometry y="60" width="20" height="20" as="geometry"/>
        </mxCell>
        <mxCell id="JzV0yU32i0BG53_tPpuR-25" value="" style="group" vertex="1" connectable="0" parent="JzV0yU32i0BG53_tPpuR-37">
          <mxGeometry x="26" width="90" height="90" as="geometry"/>
        </mxCell>
        <mxCell id="JzV0yU32i0BG53_tPpuR-26" value="" style="whiteSpace=wrap;html=1;aspect=fixed;strokeColor=#6c8ebf;fillColor=#dae8fc;" vertex="1" parent="JzV0yU32i0BG53_tPpuR-25">
          <mxGeometry width="20" height="20" as="geometry"/>
        </mxCell>
        <mxCell id="JzV0yU32i0BG53_tPpuR-27" value="" style="whiteSpace=wrap;html=1;aspect=fixed;strokeColor=#6c8ebf;fillColor=#dae8fc;" vertex="1" parent="JzV0yU32i0BG53_tPpuR-25">
          <mxGeometry y="20" width="20" height="20" as="geometry"/>
        </mxCell>
        <mxCell id="JzV0yU32i0BG53_tPpuR-28" value="" style="whiteSpace=wrap;html=1;aspect=fixed;strokeColor=#6c8ebf;fillColor=#dae8fc;" vertex="1" parent="JzV0yU32i0BG53_tPpuR-25">
          <mxGeometry y="40" width="20" height="20" as="geometry"/>
        </mxCell>
        <mxCell id="JzV0yU32i0BG53_tPpuR-29" value="" style="whiteSpace=wrap;html=1;aspect=fixed;strokeColor=#6c8ebf;fillColor=#dae8fc;" vertex="1" parent="JzV0yU32i0BG53_tPpuR-25">
          <mxGeometry y="60" width="20" height="20" as="geometry"/>
        </mxCell>
        <mxCell id="JzV0yU32i0BG53_tPpuR-30" value="" style="endArrow=none;dashed=1;html=1;strokeWidth=1;dashPattern=1 2;" edge="1" parent="JzV0yU32i0BG53_tPpuR-37">
          <mxGeometry width="50" height="50" relative="1" as="geometry">
            <mxPoint x="55" y="40" as="sourcePoint"/>
            <mxPoint x="75" y="40" as="targetPoint"/>
          </mxGeometry>
        </mxCell>
        <mxCell id="JzV0yU32i0BG53_tPpuR-31" value="" style="group" vertex="1" connectable="0" parent="JzV0yU32i0BG53_tPpuR-37">
          <mxGeometry x="80" width="20" height="80" as="geometry"/>
        </mxCell>
        <mxCell id="JzV0yU32i0BG53_tPpuR-32" value="" style="whiteSpace=wrap;html=1;aspect=fixed;strokeColor=#6c8ebf;fillColor=#dae8fc;" vertex="1" parent="JzV0yU32i0BG53_tPpuR-31">
          <mxGeometry width="20" height="20" as="geometry"/>
        </mxCell>
        <mxCell id="JzV0yU32i0BG53_tPpuR-33" value="" style="whiteSpace=wrap;html=1;aspect=fixed;strokeColor=#6c8ebf;fillColor=#dae8fc;" vertex="1" parent="JzV0yU32i0BG53_tPpuR-31">
          <mxGeometry y="20" width="20" height="20" as="geometry"/>
        </mxCell>
        <mxCell id="JzV0yU32i0BG53_tPpuR-34" value="" style="whiteSpace=wrap;html=1;aspect=fixed;strokeColor=#6c8ebf;fillColor=#dae8fc;" vertex="1" parent="JzV0yU32i0BG53_tPpuR-31">
          <mxGeometry y="40" width="20" height="20" as="geometry"/>
        </mxCell>
        <mxCell id="JzV0yU32i0BG53_tPpuR-35" value="" style="whiteSpace=wrap;html=1;aspect=fixed;strokeColor=#6c8ebf;fillColor=#dae8fc;" vertex="1" parent="JzV0yU32i0BG53_tPpuR-31">
          <mxGeometry y="60" width="20" height="20" as="geometry"/>
        </mxCell>
        <mxCell id="JzV0yU32i0BG53_tPpuR-39" value="" style="group" vertex="1" connectable="0" parent="1">
          <mxGeometry x="200" y="581" width="130" height="100" as="geometry"/>
        </mxCell>
        <mxCell id="JzV0yU32i0BG53_tPpuR-40" value="" style="rounded=1;whiteSpace=wrap;html=1;strokeColor=#000000;" vertex="1" parent="JzV0yU32i0BG53_tPpuR-39">
          <mxGeometry width="127" height="100" as="geometry"/>
        </mxCell>
        <mxCell id="JzV0yU32i0BG53_tPpuR-41" value="" style="group" vertex="1" connectable="0" parent="JzV0yU32i0BG53_tPpuR-39">
          <mxGeometry x="14" y="10" width="116" height="90" as="geometry"/>
        </mxCell>
        <mxCell id="JzV0yU32i0BG53_tPpuR-42" value="" style="group" vertex="1" connectable="0" parent="JzV0yU32i0BG53_tPpuR-41">
          <mxGeometry width="20" height="80" as="geometry"/>
        </mxCell>
        <mxCell id="JzV0yU32i0BG53_tPpuR-43" value="" style="whiteSpace=wrap;html=1;aspect=fixed;strokeColor=#6c8ebf;fillColor=#dae8fc;" vertex="1" parent="JzV0yU32i0BG53_tPpuR-42">
          <mxGeometry width="20" height="20" as="geometry"/>
        </mxCell>
        <mxCell id="JzV0yU32i0BG53_tPpuR-44" value="" style="whiteSpace=wrap;html=1;aspect=fixed;strokeColor=#6c8ebf;fillColor=#dae8fc;" vertex="1" parent="JzV0yU32i0BG53_tPpuR-42">
          <mxGeometry y="20" width="20" height="20" as="geometry"/>
        </mxCell>
        <mxCell id="JzV0yU32i0BG53_tPpuR-45" value="" style="whiteSpace=wrap;html=1;aspect=fixed;strokeColor=#6c8ebf;fillColor=#dae8fc;" vertex="1" parent="JzV0yU32i0BG53_tPpuR-42">
          <mxGeometry y="40" width="20" height="20" as="geometry"/>
        </mxCell>
        <mxCell id="JzV0yU32i0BG53_tPpuR-46" value="" style="whiteSpace=wrap;html=1;aspect=fixed;strokeColor=#6c8ebf;fillColor=#dae8fc;" vertex="1" parent="JzV0yU32i0BG53_tPpuR-42">
          <mxGeometry y="60" width="20" height="20" as="geometry"/>
        </mxCell>
        <mxCell id="JzV0yU32i0BG53_tPpuR-47" value="" style="group" vertex="1" connectable="0" parent="JzV0yU32i0BG53_tPpuR-41">
          <mxGeometry x="26" width="90" height="90" as="geometry"/>
        </mxCell>
        <mxCell id="JzV0yU32i0BG53_tPpuR-48" value="" style="whiteSpace=wrap;html=1;aspect=fixed;strokeColor=#6c8ebf;fillColor=#dae8fc;" vertex="1" parent="JzV0yU32i0BG53_tPpuR-47">
          <mxGeometry width="20" height="20" as="geometry"/>
        </mxCell>
        <mxCell id="JzV0yU32i0BG53_tPpuR-49" value="" style="whiteSpace=wrap;html=1;aspect=fixed;strokeColor=#6c8ebf;fillColor=#dae8fc;" vertex="1" parent="JzV0yU32i0BG53_tPpuR-47">
          <mxGeometry y="20" width="20" height="20" as="geometry"/>
        </mxCell>
        <mxCell id="JzV0yU32i0BG53_tPpuR-50" value="" style="whiteSpace=wrap;html=1;aspect=fixed;strokeColor=#6c8ebf;fillColor=#dae8fc;" vertex="1" parent="JzV0yU32i0BG53_tPpuR-47">
          <mxGeometry y="40" width="20" height="20" as="geometry"/>
        </mxCell>
        <mxCell id="JzV0yU32i0BG53_tPpuR-51" value="" style="whiteSpace=wrap;html=1;aspect=fixed;strokeColor=#6c8ebf;fillColor=#dae8fc;" vertex="1" parent="JzV0yU32i0BG53_tPpuR-47">
          <mxGeometry y="60" width="20" height="20" as="geometry"/>
        </mxCell>
        <mxCell id="JzV0yU32i0BG53_tPpuR-52" value="" style="endArrow=none;dashed=1;html=1;strokeWidth=1;dashPattern=1 2;" edge="1" parent="JzV0yU32i0BG53_tPpuR-41">
          <mxGeometry width="50" height="50" relative="1" as="geometry">
            <mxPoint x="55" y="40" as="sourcePoint"/>
            <mxPoint x="75" y="40" as="targetPoint"/>
          </mxGeometry>
        </mxCell>
        <mxCell id="JzV0yU32i0BG53_tPpuR-53" value="" style="group" vertex="1" connectable="0" parent="JzV0yU32i0BG53_tPpuR-41">
          <mxGeometry x="80" width="20" height="80" as="geometry"/>
        </mxCell>
        <mxCell id="JzV0yU32i0BG53_tPpuR-54" value="" style="whiteSpace=wrap;html=1;aspect=fixed;strokeColor=#6c8ebf;fillColor=#dae8fc;" vertex="1" parent="JzV0yU32i0BG53_tPpuR-53">
          <mxGeometry width="20" height="20" as="geometry"/>
        </mxCell>
        <mxCell id="JzV0yU32i0BG53_tPpuR-55" value="" style="whiteSpace=wrap;html=1;aspect=fixed;strokeColor=#6c8ebf;fillColor=#dae8fc;" vertex="1" parent="JzV0yU32i0BG53_tPpuR-53">
          <mxGeometry y="20" width="20" height="20" as="geometry"/>
        </mxCell>
        <mxCell id="JzV0yU32i0BG53_tPpuR-56" value="" style="whiteSpace=wrap;html=1;aspect=fixed;strokeColor=#6c8ebf;fillColor=#dae8fc;" vertex="1" parent="JzV0yU32i0BG53_tPpuR-53">
          <mxGeometry y="40" width="20" height="20" as="geometry"/>
        </mxCell>
        <mxCell id="JzV0yU32i0BG53_tPpuR-57" value="" style="whiteSpace=wrap;html=1;aspect=fixed;strokeColor=#6c8ebf;fillColor=#dae8fc;" vertex="1" parent="JzV0yU32i0BG53_tPpuR-53">
          <mxGeometry y="60" width="20" height="20" as="geometry"/>
        </mxCell>
        <mxCell id="JzV0yU32i0BG53_tPpuR-58" value="" style="endArrow=none;html=1;strokeWidth=2;fillColor=#d5e8d4;strokeColor=#82b366;exitX=0.5;exitY=0;exitDx=0;exitDy=0;" edge="1" parent="1" source="JzV0yU32i0BG53_tPpuR-36" target="SxaFy4cXrCoaptu_wzJ7-14">
          <mxGeometry width="50" height="50" relative="1" as="geometry">
            <mxPoint x="50" y="760" as="sourcePoint"/>
            <mxPoint x="100" y="710" as="targetPoint"/>
          </mxGeometry>
        </mxCell>
        <mxCell id="JzV0yU32i0BG53_tPpuR-60" value="" style="endArrow=none;html=1;strokeWidth=2;fillColor=#d5e8d4;strokeColor=#82b366;exitX=0.5;exitY=0;exitDx=0;exitDy=0;" edge="1" parent="1" source="JzV0yU32i0BG53_tPpuR-36" target="SxaFy4cXrCoaptu_wzJ7-15">
          <mxGeometry width="50" height="50" relative="1" as="geometry">
            <mxPoint x="183" y="594" as="sourcePoint"/>
            <mxPoint x="236.51000000000022" y="550.008" as="targetPoint"/>
          </mxGeometry>
        </mxCell>
        <mxCell id="JzV0yU32i0BG53_tPpuR-62" value="" style="endArrow=none;html=1;strokeWidth=2;fillColor=#d5e8d4;strokeColor=#82b366;exitX=0.5;exitY=0;exitDx=0;exitDy=0;" edge="1" parent="1" source="JzV0yU32i0BG53_tPpuR-40" target="SxaFy4cXrCoaptu_wzJ7-14">
          <mxGeometry width="50" height="50" relative="1" as="geometry">
            <mxPoint x="280" y="583" as="sourcePoint"/>
            <mxPoint x="287.5" y="537.5" as="targetPoint"/>
          </mxGeometry>
        </mxCell>
        <mxCell id="JzV0yU32i0BG53_tPpuR-63" value="" style="endArrow=none;html=1;strokeWidth=2;fillColor=#d5e8d4;strokeColor=#82b366;exitX=0.5;exitY=0;exitDx=0;exitDy=0;" edge="1" parent="1" source="JzV0yU32i0BG53_tPpuR-40" target="SxaFy4cXrCoaptu_wzJ7-15">
          <mxGeometry width="50" height="50" relative="1" as="geometry">
            <mxPoint x="240" y="582.5" as="sourcePoint"/>
            <mxPoint x="347.5" y="537.5" as="targetPoint"/>
          </mxGeometry>
        </mxCell>
        <mxCell id="JzV0yU32i0BG53_tPpuR-64" value="" style="group" vertex="1" connectable="0" parent="1">
          <mxGeometry x="430" y="510" width="145" height="30" as="geometry"/>
        </mxCell>
        <mxCell id="JzV0yU32i0BG53_tPpuR-65" value="" style="rounded=0;whiteSpace=wrap;html=1;strokeColor=#000000;" vertex="1" parent="JzV0yU32i0BG53_tPpuR-64">
          <mxGeometry width="145" height="30" as="geometry"/>
        </mxCell>
        <mxCell id="JzV0yU32i0BG53_tPpuR-66" value="" style="pointerEvents=1;shadow=0;dashed=0;html=1;strokeColor=none;fillColor=#505050;labelPosition=center;verticalLabelPosition=bottom;verticalAlign=top;outlineConnect=0;align=center;shape=mxgraph.office.devices.switch;" vertex="1" parent="JzV0yU32i0BG53_tPpuR-64">
          <mxGeometry x="5" y="7" width="55" height="18" as="geometry"/>
        </mxCell>
        <mxCell id="JzV0yU32i0BG53_tPpuR-67" value="" style="pointerEvents=1;shadow=0;dashed=0;html=1;strokeColor=none;fillColor=#505050;labelPosition=center;verticalLabelPosition=bottom;verticalAlign=top;outlineConnect=0;align=center;shape=mxgraph.office.devices.switch;" vertex="1" parent="JzV0yU32i0BG53_tPpuR-64">
          <mxGeometry x="85" y="7" width="55" height="18" as="geometry"/>
        </mxCell>
        <mxCell id="JzV0yU32i0BG53_tPpuR-68" value="" style="endArrow=none;html=1;strokeWidth=2;" edge="1" parent="JzV0yU32i0BG53_tPpuR-64" source="JzV0yU32i0BG53_tPpuR-66" target="JzV0yU32i0BG53_tPpuR-67">
          <mxGeometry width="50" height="50" relative="1" as="geometry">
            <mxPoint x="55" y="477" as="sourcePoint"/>
            <mxPoint x="105" y="427" as="targetPoint"/>
          </mxGeometry>
        </mxCell>
        <mxCell id="JzV0yU32i0BG53_tPpuR-69" value="&lt;b&gt;TOR STACK&lt;/b&gt;" style="text;html=1;strokeColor=none;fillColor=none;align=center;verticalAlign=middle;whiteSpace=wrap;rounded=0;" vertex="1" parent="1">
          <mxGeometry x="430" y="490" width="80" height="20" as="geometry"/>
        </mxCell>
        <mxCell id="JzV0yU32i0BG53_tPpuR-70" value="" style="group" vertex="1" connectable="0" parent="1">
          <mxGeometry x="350" y="580" width="130" height="100" as="geometry"/>
        </mxCell>
        <mxCell id="JzV0yU32i0BG53_tPpuR-71" value="" style="rounded=1;whiteSpace=wrap;html=1;strokeColor=#000000;" vertex="1" parent="JzV0yU32i0BG53_tPpuR-70">
          <mxGeometry width="127" height="100" as="geometry"/>
        </mxCell>
        <mxCell id="JzV0yU32i0BG53_tPpuR-72" value="" style="group" vertex="1" connectable="0" parent="JzV0yU32i0BG53_tPpuR-70">
          <mxGeometry x="14" y="10" width="116" height="90" as="geometry"/>
        </mxCell>
        <mxCell id="JzV0yU32i0BG53_tPpuR-73" value="" style="group" vertex="1" connectable="0" parent="JzV0yU32i0BG53_tPpuR-72">
          <mxGeometry width="20" height="80" as="geometry"/>
        </mxCell>
        <mxCell id="JzV0yU32i0BG53_tPpuR-74" value="" style="whiteSpace=wrap;html=1;aspect=fixed;strokeColor=#6c8ebf;fillColor=#dae8fc;" vertex="1" parent="JzV0yU32i0BG53_tPpuR-73">
          <mxGeometry width="20" height="20" as="geometry"/>
        </mxCell>
        <mxCell id="JzV0yU32i0BG53_tPpuR-75" value="" style="whiteSpace=wrap;html=1;aspect=fixed;strokeColor=#6c8ebf;fillColor=#dae8fc;" vertex="1" parent="JzV0yU32i0BG53_tPpuR-73">
          <mxGeometry y="20" width="20" height="20" as="geometry"/>
        </mxCell>
        <mxCell id="JzV0yU32i0BG53_tPpuR-76" value="" style="whiteSpace=wrap;html=1;aspect=fixed;strokeColor=#6c8ebf;fillColor=#dae8fc;" vertex="1" parent="JzV0yU32i0BG53_tPpuR-73">
          <mxGeometry y="40" width="20" height="20" as="geometry"/>
        </mxCell>
        <mxCell id="JzV0yU32i0BG53_tPpuR-77" value="" style="whiteSpace=wrap;html=1;aspect=fixed;strokeColor=#6c8ebf;fillColor=#dae8fc;" vertex="1" parent="JzV0yU32i0BG53_tPpuR-73">
          <mxGeometry y="60" width="20" height="20" as="geometry"/>
        </mxCell>
        <mxCell id="JzV0yU32i0BG53_tPpuR-78" value="" style="group" vertex="1" connectable="0" parent="JzV0yU32i0BG53_tPpuR-72">
          <mxGeometry x="26" width="90" height="90" as="geometry"/>
        </mxCell>
        <mxCell id="JzV0yU32i0BG53_tPpuR-79" value="" style="whiteSpace=wrap;html=1;aspect=fixed;strokeColor=#6c8ebf;fillColor=#dae8fc;" vertex="1" parent="JzV0yU32i0BG53_tPpuR-78">
          <mxGeometry width="20" height="20" as="geometry"/>
        </mxCell>
        <mxCell id="JzV0yU32i0BG53_tPpuR-80" value="" style="whiteSpace=wrap;html=1;aspect=fixed;strokeColor=#6c8ebf;fillColor=#dae8fc;" vertex="1" parent="JzV0yU32i0BG53_tPpuR-78">
          <mxGeometry y="20" width="20" height="20" as="geometry"/>
        </mxCell>
        <mxCell id="JzV0yU32i0BG53_tPpuR-81" value="" style="whiteSpace=wrap;html=1;aspect=fixed;strokeColor=#6c8ebf;fillColor=#dae8fc;" vertex="1" parent="JzV0yU32i0BG53_tPpuR-78">
          <mxGeometry y="40" width="20" height="20" as="geometry"/>
        </mxCell>
        <mxCell id="JzV0yU32i0BG53_tPpuR-82" value="" style="whiteSpace=wrap;html=1;aspect=fixed;strokeColor=#6c8ebf;fillColor=#dae8fc;" vertex="1" parent="JzV0yU32i0BG53_tPpuR-78">
          <mxGeometry y="60" width="20" height="20" as="geometry"/>
        </mxCell>
        <mxCell id="JzV0yU32i0BG53_tPpuR-83" value="" style="endArrow=none;dashed=1;html=1;strokeWidth=1;dashPattern=1 2;" edge="1" parent="JzV0yU32i0BG53_tPpuR-72">
          <mxGeometry width="50" height="50" relative="1" as="geometry">
            <mxPoint x="55" y="40" as="sourcePoint"/>
            <mxPoint x="75" y="40" as="targetPoint"/>
          </mxGeometry>
        </mxCell>
        <mxCell id="JzV0yU32i0BG53_tPpuR-84" value="" style="group" vertex="1" connectable="0" parent="JzV0yU32i0BG53_tPpuR-72">
          <mxGeometry x="80" width="20" height="80" as="geometry"/>
        </mxCell>
        <mxCell id="JzV0yU32i0BG53_tPpuR-85" value="" style="whiteSpace=wrap;html=1;aspect=fixed;strokeColor=#6c8ebf;fillColor=#dae8fc;" vertex="1" parent="JzV0yU32i0BG53_tPpuR-84">
          <mxGeometry width="20" height="20" as="geometry"/>
        </mxCell>
        <mxCell id="JzV0yU32i0BG53_tPpuR-86" value="" style="whiteSpace=wrap;html=1;aspect=fixed;strokeColor=#6c8ebf;fillColor=#dae8fc;" vertex="1" parent="JzV0yU32i0BG53_tPpuR-84">
          <mxGeometry y="20" width="20" height="20" as="geometry"/>
        </mxCell>
        <mxCell id="JzV0yU32i0BG53_tPpuR-87" value="" style="whiteSpace=wrap;html=1;aspect=fixed;strokeColor=#6c8ebf;fillColor=#dae8fc;" vertex="1" parent="JzV0yU32i0BG53_tPpuR-84">
          <mxGeometry y="40" width="20" height="20" as="geometry"/>
        </mxCell>
        <mxCell id="JzV0yU32i0BG53_tPpuR-88" value="" style="whiteSpace=wrap;html=1;aspect=fixed;strokeColor=#6c8ebf;fillColor=#dae8fc;" vertex="1" parent="JzV0yU32i0BG53_tPpuR-84">
          <mxGeometry y="60" width="20" height="20" as="geometry"/>
        </mxCell>
        <mxCell id="JzV0yU32i0BG53_tPpuR-89" value="" style="group" vertex="1" connectable="0" parent="1">
          <mxGeometry x="503" y="580" width="130" height="100" as="geometry"/>
        </mxCell>
        <mxCell id="JzV0yU32i0BG53_tPpuR-90" value="" style="rounded=1;whiteSpace=wrap;html=1;strokeColor=#000000;" vertex="1" parent="JzV0yU32i0BG53_tPpuR-89">
          <mxGeometry width="127" height="100" as="geometry"/>
        </mxCell>
        <mxCell id="JzV0yU32i0BG53_tPpuR-91" value="" style="group" vertex="1" connectable="0" parent="JzV0yU32i0BG53_tPpuR-89">
          <mxGeometry x="14" y="10" width="116" height="90" as="geometry"/>
        </mxCell>
        <mxCell id="JzV0yU32i0BG53_tPpuR-92" value="" style="group" vertex="1" connectable="0" parent="JzV0yU32i0BG53_tPpuR-91">
          <mxGeometry width="20" height="80" as="geometry"/>
        </mxCell>
        <mxCell id="JzV0yU32i0BG53_tPpuR-93" value="" style="whiteSpace=wrap;html=1;aspect=fixed;strokeColor=#6c8ebf;fillColor=#dae8fc;" vertex="1" parent="JzV0yU32i0BG53_tPpuR-92">
          <mxGeometry width="20" height="20" as="geometry"/>
        </mxCell>
        <mxCell id="JzV0yU32i0BG53_tPpuR-94" value="" style="whiteSpace=wrap;html=1;aspect=fixed;strokeColor=#6c8ebf;fillColor=#dae8fc;" vertex="1" parent="JzV0yU32i0BG53_tPpuR-92">
          <mxGeometry y="20" width="20" height="20" as="geometry"/>
        </mxCell>
        <mxCell id="JzV0yU32i0BG53_tPpuR-95" value="" style="whiteSpace=wrap;html=1;aspect=fixed;strokeColor=#6c8ebf;fillColor=#dae8fc;" vertex="1" parent="JzV0yU32i0BG53_tPpuR-92">
          <mxGeometry y="40" width="20" height="20" as="geometry"/>
        </mxCell>
        <mxCell id="JzV0yU32i0BG53_tPpuR-96" value="" style="whiteSpace=wrap;html=1;aspect=fixed;strokeColor=#6c8ebf;fillColor=#dae8fc;" vertex="1" parent="JzV0yU32i0BG53_tPpuR-92">
          <mxGeometry y="60" width="20" height="20" as="geometry"/>
        </mxCell>
        <mxCell id="JzV0yU32i0BG53_tPpuR-97" value="" style="group" vertex="1" connectable="0" parent="JzV0yU32i0BG53_tPpuR-91">
          <mxGeometry x="26" width="90" height="90" as="geometry"/>
        </mxCell>
        <mxCell id="JzV0yU32i0BG53_tPpuR-98" value="" style="whiteSpace=wrap;html=1;aspect=fixed;strokeColor=#6c8ebf;fillColor=#dae8fc;" vertex="1" parent="JzV0yU32i0BG53_tPpuR-97">
          <mxGeometry width="20" height="20" as="geometry"/>
        </mxCell>
        <mxCell id="JzV0yU32i0BG53_tPpuR-99" value="" style="whiteSpace=wrap;html=1;aspect=fixed;strokeColor=#6c8ebf;fillColor=#dae8fc;" vertex="1" parent="JzV0yU32i0BG53_tPpuR-97">
          <mxGeometry y="20" width="20" height="20" as="geometry"/>
        </mxCell>
        <mxCell id="JzV0yU32i0BG53_tPpuR-100" value="" style="whiteSpace=wrap;html=1;aspect=fixed;strokeColor=#6c8ebf;fillColor=#dae8fc;" vertex="1" parent="JzV0yU32i0BG53_tPpuR-97">
          <mxGeometry y="40" width="20" height="20" as="geometry"/>
        </mxCell>
        <mxCell id="JzV0yU32i0BG53_tPpuR-101" value="" style="whiteSpace=wrap;html=1;aspect=fixed;strokeColor=#6c8ebf;fillColor=#dae8fc;" vertex="1" parent="JzV0yU32i0BG53_tPpuR-97">
          <mxGeometry y="60" width="20" height="20" as="geometry"/>
        </mxCell>
        <mxCell id="JzV0yU32i0BG53_tPpuR-102" value="" style="endArrow=none;dashed=1;html=1;strokeWidth=1;dashPattern=1 2;" edge="1" parent="JzV0yU32i0BG53_tPpuR-91">
          <mxGeometry width="50" height="50" relative="1" as="geometry">
            <mxPoint x="55" y="40" as="sourcePoint"/>
            <mxPoint x="75" y="40" as="targetPoint"/>
          </mxGeometry>
        </mxCell>
        <mxCell id="JzV0yU32i0BG53_tPpuR-103" value="" style="group" vertex="1" connectable="0" parent="JzV0yU32i0BG53_tPpuR-91">
          <mxGeometry x="80" width="20" height="80" as="geometry"/>
        </mxCell>
        <mxCell id="JzV0yU32i0BG53_tPpuR-104" value="" style="whiteSpace=wrap;html=1;aspect=fixed;strokeColor=#6c8ebf;fillColor=#dae8fc;" vertex="1" parent="JzV0yU32i0BG53_tPpuR-103">
          <mxGeometry width="20" height="20" as="geometry"/>
        </mxCell>
        <mxCell id="JzV0yU32i0BG53_tPpuR-105" value="" style="whiteSpace=wrap;html=1;aspect=fixed;strokeColor=#6c8ebf;fillColor=#dae8fc;" vertex="1" parent="JzV0yU32i0BG53_tPpuR-103">
          <mxGeometry y="20" width="20" height="20" as="geometry"/>
        </mxCell>
        <mxCell id="JzV0yU32i0BG53_tPpuR-106" value="" style="whiteSpace=wrap;html=1;aspect=fixed;strokeColor=#6c8ebf;fillColor=#dae8fc;" vertex="1" parent="JzV0yU32i0BG53_tPpuR-103">
          <mxGeometry y="40" width="20" height="20" as="geometry"/>
        </mxCell>
        <mxCell id="JzV0yU32i0BG53_tPpuR-107" value="" style="whiteSpace=wrap;html=1;aspect=fixed;strokeColor=#6c8ebf;fillColor=#dae8fc;" vertex="1" parent="JzV0yU32i0BG53_tPpuR-103">
          <mxGeometry y="60" width="20" height="20" as="geometry"/>
        </mxCell>
        <mxCell id="JzV0yU32i0BG53_tPpuR-108" value="" style="endArrow=none;html=1;strokeWidth=2;fillColor=#d5e8d4;strokeColor=#82b366;exitX=0.5;exitY=0;exitDx=0;exitDy=0;" edge="1" source="JzV0yU32i0BG53_tPpuR-71" target="JzV0yU32i0BG53_tPpuR-66" parent="1">
          <mxGeometry width="50" height="50" relative="1" as="geometry">
            <mxPoint x="350" y="760" as="sourcePoint"/>
            <mxPoint x="400" y="710" as="targetPoint"/>
          </mxGeometry>
        </mxCell>
        <mxCell id="JzV0yU32i0BG53_tPpuR-109" value="" style="endArrow=none;html=1;strokeWidth=2;fillColor=#d5e8d4;strokeColor=#82b366;exitX=0.5;exitY=0;exitDx=0;exitDy=0;" edge="1" source="JzV0yU32i0BG53_tPpuR-71" target="JzV0yU32i0BG53_tPpuR-67" parent="1">
          <mxGeometry width="50" height="50" relative="1" as="geometry">
            <mxPoint x="483" y="594" as="sourcePoint"/>
            <mxPoint x="536.5100000000002" y="550.008" as="targetPoint"/>
          </mxGeometry>
        </mxCell>
        <mxCell id="JzV0yU32i0BG53_tPpuR-110" value="" style="endArrow=none;html=1;strokeWidth=2;fillColor=#d5e8d4;strokeColor=#82b366;exitX=0.5;exitY=0;exitDx=0;exitDy=0;" edge="1" source="JzV0yU32i0BG53_tPpuR-90" target="JzV0yU32i0BG53_tPpuR-66" parent="1">
          <mxGeometry width="50" height="50" relative="1" as="geometry">
            <mxPoint x="580" y="583" as="sourcePoint"/>
            <mxPoint x="587.5" y="537.5" as="targetPoint"/>
          </mxGeometry>
        </mxCell>
        <mxCell id="JzV0yU32i0BG53_tPpuR-111" value="" style="endArrow=none;html=1;strokeWidth=2;fillColor=#d5e8d4;strokeColor=#82b366;exitX=0.5;exitY=0;exitDx=0;exitDy=0;" edge="1" source="JzV0yU32i0BG53_tPpuR-90" target="JzV0yU32i0BG53_tPpuR-67" parent="1">
          <mxGeometry width="50" height="50" relative="1" as="geometry">
            <mxPoint x="540" y="582.5" as="sourcePoint"/>
            <mxPoint x="647.5" y="537.5" as="targetPoint"/>
          </mxGeometry>
        </mxCell>
        <mxCell id="JzV0yU32i0BG53_tPpuR-112" value="&lt;i&gt;Access Layer&lt;/i&gt;" style="text;html=1;strokeColor=none;fillColor=none;align=center;verticalAlign=middle;whiteSpace=wrap;rounded=0;" vertex="1" parent="1">
          <mxGeometry x="620" y="515" width="80" height="20" as="geometry"/>
        </mxCell>
        <mxCell id="JzV0yU32i0BG53_tPpuR-113" value="" style="verticalLabelPosition=bottom;html=1;fillColor=#6ABD46;verticalAlign=top;align=center;points=[[0.06,0.06,0],[0.94,0.06,0],[0.94,0.94,0],[0.06,0.94,0],[0.25,0,0],[0.5,0,0],[0.75,0,0],[1,0.25,0],[1,0.5,0],[1,0.75,0],[0.75,1,0],[0.5,1,0],[0.25,1,0],[0,0.75,0],[0,0.5,0],[0,0.25,0]];pointerEvents=1;shape=mxgraph.cisco_safe.architecture.switch;strokeColor=#000000;" vertex="1" parent="1">
          <mxGeometry x="250" y="370" width="50" height="50" as="geometry"/>
        </mxCell>
        <mxCell id="JzV0yU32i0BG53_tPpuR-114" value="" style="verticalLabelPosition=bottom;html=1;fillColor=#6ABD46;verticalAlign=top;align=center;points=[[0.06,0.06,0],[0.94,0.06,0],[0.94,0.94,0],[0.06,0.94,0],[0.25,0,0],[0.5,0,0],[0.75,0,0],[1,0.25,0],[1,0.5,0],[1,0.75,0],[0.75,1,0],[0.5,1,0],[0.25,1,0],[0,0.75,0],[0,0.5,0],[0,0.25,0]];pointerEvents=1;shape=mxgraph.cisco_safe.architecture.switch;strokeColor=#000000;" vertex="1" parent="1">
          <mxGeometry x="410" y="370" width="50" height="50" as="geometry"/>
        </mxCell>
        <mxCell id="JzV0yU32i0BG53_tPpuR-115" value="" style="endArrow=none;dashed=1;html=1;strokeWidth=2;dashPattern=1 2;" edge="1" parent="1">
          <mxGeometry width="50" height="50" relative="1" as="geometry">
            <mxPoint x="317.5" y="525" as="sourcePoint"/>
            <mxPoint x="362.5" y="525" as="targetPoint"/>
          </mxGeometry>
        </mxCell>
        <mxCell id="JzV0yU32i0BG53_tPpuR-116" value="&lt;i&gt;Distribution&lt;/i&gt;" style="text;html=1;strokeColor=none;fillColor=none;align=center;verticalAlign=middle;whiteSpace=wrap;rounded=0;" vertex="1" parent="1">
          <mxGeometry x="620" y="385" width="80" height="20" as="geometry"/>
        </mxCell>
        <mxCell id="JzV0yU32i0BG53_tPpuR-117" value="" style="endArrow=none;html=1;strokeWidth=4;entryX=0.5;entryY=1;entryDx=0;entryDy=0;entryPerimeter=0;strokeColor=#5724FF;exitX=0.5;exitY=0;exitDx=0;exitDy=0;" edge="1" parent="1" source="SxaFy4cXrCoaptu_wzJ7-20" target="JzV0yU32i0BG53_tPpuR-113">
          <mxGeometry width="50" height="50" relative="1" as="geometry">
            <mxPoint x="220" y="470" as="sourcePoint"/>
            <mxPoint x="100" y="700" as="targetPoint"/>
          </mxGeometry>
        </mxCell>
        <mxCell id="JzV0yU32i0BG53_tPpuR-118" value="" style="endArrow=none;html=1;strokeWidth=4;entryX=0.5;entryY=1;entryDx=0;entryDy=0;entryPerimeter=0;strokeColor=#5724FF;exitX=0.5;exitY=0;exitDx=0;exitDy=0;" edge="1" parent="1" source="SxaFy4cXrCoaptu_wzJ7-20" target="JzV0yU32i0BG53_tPpuR-114">
          <mxGeometry width="50" height="50" relative="1" as="geometry">
            <mxPoint x="230" y="490" as="sourcePoint"/>
            <mxPoint x="342.5" y="420" as="targetPoint"/>
          </mxGeometry>
        </mxCell>
        <mxCell id="JzV0yU32i0BG53_tPpuR-119" value="" style="endArrow=none;html=1;strokeWidth=4;entryX=0.5;entryY=1;entryDx=0;entryDy=0;entryPerimeter=0;strokeColor=#5724FF;exitX=0.5;exitY=0;exitDx=0;exitDy=0;" edge="1" parent="1" source="JzV0yU32i0BG53_tPpuR-65" target="JzV0yU32i0BG53_tPpuR-113">
          <mxGeometry width="50" height="50" relative="1" as="geometry">
            <mxPoint x="260" y="520" as="sourcePoint"/>
            <mxPoint x="492.5" y="430" as="targetPoint"/>
          </mxGeometry>
        </mxCell>
        <mxCell id="JzV0yU32i0BG53_tPpuR-120" value="" style="endArrow=none;html=1;strokeWidth=4;entryX=0.5;entryY=1;entryDx=0;entryDy=0;entryPerimeter=0;strokeColor=#5724FF;exitX=0.5;exitY=0;exitDx=0;exitDy=0;" edge="1" parent="1" source="JzV0yU32i0BG53_tPpuR-65" target="JzV0yU32i0BG53_tPpuR-114">
          <mxGeometry width="50" height="50" relative="1" as="geometry">
            <mxPoint x="584" y="500" as="sourcePoint"/>
            <mxPoint x="356.5" y="410" as="targetPoint"/>
          </mxGeometry>
        </mxCell>
        <mxCell id="JzV0yU32i0BG53_tPpuR-123" value="&lt;font style=&quot;font-size: 15px&quot;&gt;&lt;b&gt;POD&lt;/b&gt;&lt;/font&gt;" style="text;html=1;strokeColor=none;fillColor=none;align=center;verticalAlign=middle;whiteSpace=wrap;rounded=0;" vertex="1" parent="1">
          <mxGeometry x="30" y="270" width="60" height="20" as="geometry"/>
        </mxCell>
        <mxCell id="JzV0yU32i0BG53_tPpuR-126" value="" style="endArrow=classic;startArrow=classic;html=1;strokeColor=#5724FF;strokeWidth=4;entryX=0.5;entryY=0;entryDx=0;entryDy=0;entryPerimeter=0;" edge="1" parent="1" target="JzV0yU32i0BG53_tPpuR-113">
          <mxGeometry width="50" height="50" relative="1" as="geometry">
            <mxPoint x="275" y="210" as="sourcePoint"/>
            <mxPoint x="200" y="850" as="targetPoint"/>
          </mxGeometry>
        </mxCell>
        <mxCell id="JzV0yU32i0BG53_tPpuR-127" value="" style="endArrow=classic;startArrow=classic;html=1;strokeColor=#5724FF;strokeWidth=4;entryX=0.5;entryY=0;entryDx=0;entryDy=0;entryPerimeter=0;" edge="1" parent="1">
          <mxGeometry width="50" height="50" relative="1" as="geometry">
            <mxPoint x="434.5" y="210" as="sourcePoint"/>
            <mxPoint x="434.5" y="370" as="targetPoint"/>
          </mxGeometry>
        </mxCell>
        <mxCell id="JzV0yU32i0BG53_tPpuR-128" value="&lt;font style=&quot;font-size: 13px&quot;&gt;&lt;b&gt;4x10G port in every server&lt;br&gt;2x10G shared between storage and management.&lt;br&gt;2x10G is for networking. Used in LACP bonded mode.&lt;/b&gt;&lt;/font&gt;" style="text;html=1;strokeColor=none;fillColor=none;align=left;verticalAlign=middle;whiteSpace=wrap;rounded=0;" vertex="1" parent="1">
          <mxGeometry x="420.5" y="740" width="295" height="60" as="geometry"/>
        </mxCell>
      </root>
    </mxGraphModel>
  </diagram>
</mxfile>
